<svg width="512" height="512" viewBox="0 0 512 512" fill="none" xmlns="http://www.w3.org/2000/svg">
<g clip-path="url(#clip0_1_2)">
<path d="M416 0H96C42.9807 0 0 42.9807 0 96V416C0 469.019 42.9807 512 96 512H416C469.019 512 512 469.019 512 416V96C512 42.9807 469.019 0 416 0Z" fill="url(#paint0_linear_1_2)"/>
<path d="M268.167 304.667H207.333" stroke="white" stroke-width="24.3333" stroke-linecap="round" stroke-linejoin="round"/>
<path d="M280.333 207.333H207.333" stroke="white" stroke-width="24.3333" stroke-linecap="round" stroke-linejoin="round"/>
<path d="M304.667 256H207.333" stroke="white" stroke-width="24.3333" stroke-linecap="round" stroke-linejoin="round"/>
<path d="M158.667 146.5C158.667 143.273 159.949 140.179 162.23 137.897C164.512 135.615 167.607 134.333 170.833 134.333C173.846 134.317 176.801 135.161 179.35 136.767L190.702 144.067C193.245 145.692 196.2 146.555 199.218 146.555C202.236 146.555 205.192 145.692 207.735 144.067L219.099 136.767C221.642 135.141 224.597 134.278 227.615 134.278C230.633 134.278 233.589 135.141 236.132 136.767L247.483 144.067C250.027 145.692 252.982 146.555 256 146.555C259.018 146.555 261.973 145.692 264.517 144.067L275.868 136.767C278.411 135.141 281.367 134.278 284.385 134.278C287.403 134.278 290.358 135.141 292.902 136.767L304.265 144.067C306.808 145.692 309.764 146.555 312.782 146.555C315.8 146.555 318.755 145.692 321.299 144.067L332.65 136.767C335.199 135.161 338.154 134.317 341.167 134.333C344.393 134.333 347.488 135.615 349.77 137.897C352.052 140.179 353.333 143.273 353.333 146.5V365.5C353.333 368.727 352.052 371.821 349.77 374.103C347.488 376.385 344.393 377.667 341.167 377.667C338.154 377.683 335.199 376.839 332.65 375.233L321.299 367.933C318.755 366.308 315.8 365.445 312.782 365.445C309.764 365.445 306.808 366.308 304.265 367.933L292.902 375.233C290.358 376.859 287.403 377.722 284.385 377.722C281.367 377.722 278.411 376.859 275.868 375.233L264.517 367.933C261.973 366.308 259.018 365.445 256 365.445C252.982 365.445 250.027 366.308 247.483 367.933L236.132 375.233C233.589 376.859 230.633 377.722 227.615 377.722C224.597 377.722 221.642 376.859 219.099 375.233L207.735 367.933C205.192 366.308 202.236 365.445 199.218 365.445C196.2 365.445 193.245 366.308 190.702 367.933L179.35 375.233C176.801 376.839 173.846 377.683 170.833 377.667C167.607 377.667 164.512 376.385 162.23 374.103C159.949 371.821 158.667 368.727 158.667 365.5V146.5Z" stroke="white" stroke-width="24.3333" stroke-linecap="round" stroke-linejoin="round"/>
</g>
<defs>
<linearGradient id="paint0_linear_1_2" x1="0" y1="0" x2="557" y2="575.5" gradientUnits="userSpaceOnUse">
<stop stop-color="#0081FF"/>
<stop offset="1" stop-color="#005FFF"/>
</linearGradient>
<clipPath id="clip0_1_2">
<rect width="512" height="512" fill="white"/>
</clipPath>
</defs>
</svg>
